<svg width="577" height="88" viewBox="0 0 577 88" fill="none" xmlns="http://www.w3.org/2000/svg">
<path fill-rule="evenodd" clip-rule="evenodd" d="M42.24 88C22.3279 88 12.3718 88 6.18591 81.8141C-5.45447e-07 75.6282 -9.84393e-07 65.672 -1.86228e-06 45.7598L-2.01747e-06 42.2398C-2.89536e-06 22.3276 -3.3343e-06 12.3715 6.1859 6.18556C12.3718 7.53081e-06 22.3279 7.09933e-06 42.2399 6.23638e-06L42.24 6.23638e-06L45.76 6.08383e-06L45.76 6.08383e-06C65.6721 5.22087e-06 75.6282 4.7894e-06 81.8141 6.18555C88 12.3714 88 22.3276 88 42.2398L88 45.7598C88 65.672 88 75.6282 81.8141 81.8141C75.6282 88 65.6721 88 45.76 88L42.24 88Z" fill="#0077FF"/>
<path d="M50.8869 54.2311C48.516 53.6388 46.8535 51.5179 46.8535 49.0854L46.8535 20.4275C46.8535 17.6646 49.4643 15.6383 52.1573 16.311L69.2113 20.5712C71.5823 21.1634 73.2448 23.2843 73.2448 25.7168L73.2448 54.3747C73.2448 57.1376 70.634 59.164 67.941 58.4913L50.8869 54.2311Z" fill="white"/>
<path d="M18.7893 67.4269C16.4183 66.8346 14.7559 64.7137 14.7559 62.2812L14.7559 33.6233C14.7559 30.8604 17.3666 28.8341 20.0596 29.5068L37.1137 33.767C39.4846 34.3592 41.1471 36.4801 41.1471 38.9126L41.1471 67.5705C41.1471 70.3334 38.5363 72.3598 35.8433 71.687L18.7893 67.4269Z" fill="white"/>
<path d="M34.8381 60.8292C32.4671 60.2369 30.8047 58.116 30.8047 55.6835L30.8047 27.0257C30.8047 24.2628 33.4155 22.2364 36.1085 22.9091L53.1625 27.1693C55.5335 27.7616 57.1959 29.8825 57.1959 32.315L57.1959 60.9728C57.1959 63.7358 54.5852 65.7621 51.8921 65.0894L34.8381 60.8292Z" fill="white"/>
<path d="M45.9999 63.625V63.625C45.2531 63.4348 44.7216 62.7744 44.6955 62.0042L43.9536 40.1183C43.739 37.2217 41.5888 34.918 39.3419 34.2396C39.2157 34.2015 39.081 34.2528 39.0063 34.3613V34.3613C38.9304 34.4716 38.9597 34.6243 39.0656 34.7063C39.6205 35.1358 41.1476 36.5375 41.1476 38.9551L41.1431 62.3942L45.9999 63.625Z" fill="#2B71F6"/>
<path d="M62.0528 57.0208V57.0208C61.3066 56.8341 60.7744 56.1757 60.7484 55.4069L60.0063 33.5226C59.7917 30.626 57.6416 28.3223 55.3946 27.6439C55.2685 27.6058 55.1338 27.6571 55.0591 27.7656V27.7656C54.9831 27.8759 55.0125 28.0286 55.1184 28.1106C55.6732 28.5401 57.2004 29.9418 57.2004 32.3594L57.1959 55.8065L62.0528 57.0208Z" fill="#2B71F6"/>
<path d="M138.659 50.5561C145.323 48.8571 149.702 43.7602 149.702 37.0902C149.702 28.847 143.101 23.058 133.835 23.058H117.334V67.4199H124.95V51.1224H130.345L142.149 67.4199H151.098L138.659 50.5561ZM133.835 29.9797C138.595 29.9797 141.896 32.8742 141.896 37.0902C141.896 41.3061 138.595 44.2007 133.835 44.2007H124.95V29.9797H133.835Z" fill="black"/>
<path d="M168.239 68.0491C172.237 68.0491 175.918 65.9726 178.013 62.5117L179.472 67.4199H184.931V34.699H177.632V53.6394C177.632 58.2958 174.522 61.5679 170.27 61.5679C166.081 61.5679 163.161 58.2958 163.161 53.6394V34.699H155.863V54.4574C155.863 62.323 161.194 68.0491 168.239 68.0491Z" fill="black"/>
<path d="M208.223 68.0491C216.664 68.0491 223.646 63.2668 223.646 55.3383C223.646 46.4659 216.347 43.886 210.064 41.7466C205.177 40.1106 200.925 38.6004 200.925 34.6361C200.925 31.1752 204.161 29.3504 207.969 29.3504C211.968 29.3504 214.824 31.4269 216.411 34.9507L223.646 33.7552C221.361 26.8334 215.585 22.4287 207.716 22.4287C199.592 22.4287 193.118 27.0851 193.118 35.0137C193.118 43.949 200.417 46.403 206.7 48.4795C211.524 50.0527 215.839 51.5628 215.839 55.59C215.839 59.1138 212.603 61.1274 208.287 61.1274C203.336 61.1274 200.671 58.7992 198.323 54.5832L190.96 55.8417C193.118 63.3298 199.973 68.0491 208.223 68.0491Z" fill="black"/>
<path d="M243.501 61.1274C241.026 61.1274 239.82 59.9318 239.82 57.4778V40.9915H249.657V34.699H239.82V25.2603H234.362L232.521 34.699H227.127V40.9915H232.521V57.4778C232.521 63.8961 236.266 67.4199 243.501 67.4199H249.657L250.292 61.1274H243.501Z" fill="black"/>
<path d="M271.149 68.0491C281.494 68.0491 288.792 61.0016 288.792 51.0595C288.792 41.1173 281.494 34.0698 271.149 34.0698C260.804 34.0698 253.505 41.1173 253.505 51.0595C253.505 61.0016 260.804 68.0491 271.149 68.0491ZM271.149 61.442C265.183 61.442 261.121 57.2261 261.121 51.0595C261.121 44.8928 265.183 40.6769 271.149 40.6769C277.115 40.6769 281.176 44.8928 281.176 51.0595C281.176 57.2261 277.115 61.442 271.149 61.442Z" fill="black"/>
<path d="M302.436 67.4199V48.102C302.436 43.949 304.467 41.6207 308.91 41.6207H313.099L312.464 34.699H311.068C307.196 34.699 304.213 35.7687 301.992 39.4184L300.596 34.699H295.138V67.4199H302.436Z" fill="black"/>
<path d="M349.012 50.6819C349.012 41.2432 341.904 34.0698 331.876 34.0698C321.849 34.0698 314.74 41.1803 314.74 51.0595C314.74 60.9386 321.849 68.0491 331.876 68.0491C338.731 68.0491 345.204 64.84 347.68 58.6104L340.825 57.4778C339.239 59.806 336.192 61.442 332.321 61.442C326.736 61.442 323.055 58.0441 322.356 53.0101H348.885C348.949 52.3179 349.012 51.5628 349.012 50.6819ZM331.876 40.3623C336.446 40.3623 339.873 43.2568 341.079 47.3469H322.801C324.007 43.1309 327.434 40.3623 331.876 40.3623Z" fill="black"/>
<path d="M436.48 24.9194H435V17.1503H441.646V24.9194H440.166V18.5027H436.48V24.9194Z" fill="#212121"/>
<path d="M443.688 28V17.1503H444.76L445.123 18.4426C445.445 18.0319 445.853 17.6913 446.346 17.4208C446.85 17.1403 447.434 17 448.098 17C448.833 17 449.488 17.1753 450.062 17.526C450.636 17.8666 451.084 18.3424 451.406 18.9536C451.738 19.5647 451.904 20.2609 451.904 21.0423C451.904 21.8138 451.738 22.505 451.406 23.1161C451.084 23.7272 450.636 24.2081 450.062 24.5587C449.488 24.8994 448.833 25.0697 448.098 25.0697C447.454 25.0697 446.885 24.9394 446.391 24.679C445.898 24.4085 445.49 24.0779 445.168 23.6872V28H443.688ZM447.781 23.7473C448.284 23.7473 448.733 23.6321 449.125 23.4016C449.518 23.1712 449.82 22.8506 450.031 22.4399C450.253 22.0291 450.364 21.5633 450.364 21.0423C450.364 20.5214 450.253 20.0556 450.031 19.6448C449.82 19.2341 449.518 18.9135 449.125 18.6831C448.733 18.4526 448.284 18.3374 447.781 18.3374C447.277 18.3374 446.824 18.4526 446.422 18.6831C446.029 18.9135 445.722 19.2341 445.5 19.6448C445.279 20.0556 445.168 20.5214 445.168 21.0423C445.168 21.5633 445.279 22.0291 445.5 22.4399C445.722 22.8506 446.029 23.1712 446.422 23.4016C446.824 23.6321 447.277 23.7473 447.781 23.7473Z" fill="#212121"/>
<path d="M455.687 24.9194H453.497V17.1503H454.931V23.2664H455.158L458.315 17.1503H460.505V24.9194H459.07V18.8183H458.843L455.687 24.9194Z" fill="#212121"/>
<path d="M467.632 24.9194H466.152V17.1503H472.798V24.9194H471.318V18.5027H467.632V24.9194Z" fill="#212121"/>
<path d="M478.51 25.0697C477.715 25.0697 477.005 24.8994 476.38 24.5587C475.756 24.2181 475.268 23.7423 474.915 23.1311C474.563 22.52 474.387 21.8238 474.387 21.0423C474.387 20.2609 474.563 19.5647 474.915 18.9536C475.268 18.3424 475.756 17.8666 476.38 17.526C477.005 17.1753 477.715 17 478.51 17C479.306 17 480.015 17.1753 480.64 17.526C481.264 17.8666 481.752 18.3424 482.105 18.9536C482.457 19.5647 482.634 20.2609 482.634 21.0423C482.634 21.8238 482.457 22.52 482.105 23.1311C481.752 23.7423 481.264 24.2181 480.64 24.5587C480.015 24.8994 479.306 25.0697 478.51 25.0697ZM478.51 23.7172C479.275 23.7172 479.895 23.4718 480.368 22.9809C480.851 22.49 481.093 21.8438 481.093 21.0423C481.093 20.2409 480.851 19.5947 480.368 19.1038C479.895 18.6029 479.275 18.3525 478.51 18.3525C477.745 18.3525 477.126 18.6029 476.652 19.1038C476.179 19.5947 475.942 20.2409 475.942 21.0423C475.942 21.8338 476.179 22.48 476.652 22.9809C477.126 23.4718 477.745 23.7172 478.51 23.7172Z" fill="#212121"/>
<path d="M483.095 27.2186V23.5669H483.261C483.694 23.5669 484.022 23.3766 484.243 22.9959C484.475 22.6152 484.626 22.0191 484.696 21.2077L485.074 17.1503H490.602V23.5669H491.916V27.2186H490.436V24.9194H484.575V27.2186H483.095ZM489.122 23.5669V18.5027H486.448L486.191 21.2077C486.131 21.8488 486.04 22.3547 485.92 22.7254C485.809 23.0961 485.653 23.3766 485.451 23.5669H489.122Z" fill="#212121"/>
<path d="M492.978 27.2186V23.5669H493.144C493.577 23.5669 493.904 23.3766 494.126 22.9959C494.357 22.6152 494.508 22.0191 494.579 21.2077L494.956 17.1503H500.484V23.5669H501.798V27.2186H500.318V24.9194H494.458V27.2186H492.978ZM499.004 23.5669V18.5027H496.331L496.074 21.2077C496.014 21.8488 495.923 22.3547 495.802 22.7254C495.691 23.0961 495.535 23.3766 495.334 23.5669H499.004Z" fill="#212121"/>
<path d="M510.491 20.9822C510.491 21.1826 510.486 21.3379 510.476 21.4481H504.026C504.107 22.1393 504.379 22.6903 504.842 23.1011C505.305 23.5118 505.894 23.7172 506.609 23.7172C507.102 23.7172 507.54 23.622 507.923 23.4317C508.316 23.2313 508.613 22.9709 508.814 22.6503L510.204 22.8757C509.902 23.577 509.413 24.1179 508.739 24.4986C508.074 24.8793 507.334 25.0697 506.518 25.0697C505.743 25.0697 505.048 24.8994 504.434 24.5587C503.82 24.2081 503.341 23.7272 502.999 23.1161C502.657 22.505 502.486 21.8138 502.486 21.0423C502.486 20.2609 502.657 19.5647 502.999 18.9536C503.341 18.3424 503.815 17.8666 504.419 17.526C505.023 17.1753 505.713 17 506.488 17C507.253 17 507.938 17.1753 508.542 17.526C509.156 17.8666 509.635 18.3424 509.977 18.9536C510.319 19.5546 510.491 20.2309 510.491 20.9822ZM506.488 18.3074C505.894 18.3074 505.38 18.4827 504.947 18.8333C504.525 19.184 504.243 19.6548 504.102 20.2459H508.875C508.744 19.6648 508.462 19.199 508.029 18.8484C507.606 18.4877 507.092 18.3074 506.488 18.3074Z" fill="#212121"/>
<path d="M511.921 28V17.1503H512.994L513.356 18.4426C513.679 18.0319 514.086 17.6913 514.58 17.4208C515.083 17.1403 515.667 17 516.332 17C517.067 17 517.721 17.1753 518.295 17.526C518.869 17.8666 519.317 18.3424 519.64 18.9536C519.972 19.5647 520.138 20.2609 520.138 21.0423C520.138 21.8138 519.972 22.505 519.64 23.1161C519.317 23.7272 518.869 24.2081 518.295 24.5587C517.721 24.8994 517.067 25.0697 516.332 25.0697C515.687 25.0697 515.118 24.9394 514.625 24.679C514.132 24.4085 513.724 24.0779 513.402 23.6872V28H511.921ZM516.015 23.7473C516.518 23.7473 516.966 23.6321 517.359 23.4016C517.752 23.1712 518.054 22.8506 518.265 22.4399C518.487 22.0291 518.597 21.5633 518.597 21.0423C518.597 20.5214 518.487 20.0556 518.265 19.6448C518.054 19.2341 517.752 18.9135 517.359 18.6831C516.966 18.4526 516.518 18.3374 516.015 18.3374C515.511 18.3374 515.058 18.4526 514.655 18.6831C514.263 18.9135 513.955 19.2341 513.734 19.6448C513.512 20.0556 513.402 20.5214 513.402 21.0423C513.402 21.5633 513.512 22.0291 513.734 22.4399C513.955 22.8506 514.263 23.1712 514.655 23.4016C515.058 23.6321 515.511 23.7473 516.015 23.7473Z" fill="#212121"/>
<path d="M531.887 24.9194H529.999L527.326 21.7036H526.888V24.9194H525.453V21.7036H525.015L522.341 24.9194H520.453L523.837 20.9071L520.756 17.1503H522.477L525 20.291H525.453V17.1503H526.888V20.291H527.341L529.863 17.1503H531.585L528.504 20.9071L531.887 24.9194Z" fill="#212121"/>
<path d="M539.707 24.9194H537.759L534.874 21.7036H534.406V24.9194H532.925V17.1503H534.406V20.291H534.859L537.623 17.1503H539.405L536.052 20.9071L539.707 24.9194Z" fill="#212121"/>
<path d="M548 20.9822C548 21.1826 547.995 21.3379 547.985 21.4481H541.535C541.616 22.1393 541.888 22.6903 542.351 23.1011C542.814 23.5118 543.403 23.7172 544.118 23.7172C544.612 23.7172 545.05 23.622 545.432 23.4317C545.825 23.2313 546.122 22.9709 546.323 22.6503L547.713 22.8757C547.411 23.577 546.923 24.1179 546.248 24.4986C545.583 24.8793 544.843 25.0697 544.028 25.0697C543.252 25.0697 542.558 24.8994 541.943 24.5587C541.329 24.2081 540.851 23.7272 540.508 23.1161C540.166 22.505 539.995 21.8138 539.995 21.0423C539.995 20.2609 540.166 19.5647 540.508 18.9536C540.851 18.3424 541.324 17.8666 541.928 17.526C542.532 17.1753 543.222 17 543.997 17C544.763 17 545.447 17.1753 546.052 17.526C546.666 17.8666 547.144 18.3424 547.486 18.9536C547.829 19.5546 548 20.2309 548 20.9822ZM543.997 18.3074C543.403 18.3074 542.89 18.4827 542.457 18.8333C542.034 19.184 541.752 19.6548 541.611 20.2459H546.384C546.253 19.6648 545.971 19.199 545.538 18.8484C545.115 18.4877 544.602 18.3074 543.997 18.3074Z" fill="#212121"/>
<path d="M400.341 48.5112C400.332 48.5025 400.128 48.2891 399.769 48.2891C399.582 48.2891 399.387 48.3501 399.196 48.4633C399.162 48.4807 399.14 48.5199 399.149 48.5591C399.149 48.5678 399.292 49.53 399.183 49.9436C399.105 50.2527 398.841 50.6184 398.364 50.6184C398.26 50.6184 398.156 50.601 398.048 50.5705H398.044L398.403 50.3267C398.429 50.3093 398.447 50.2788 398.447 50.2484C398.447 50.2135 398.429 50.1874 398.403 50.17L397.693 49.678C397.918 49.5082 398.061 49.3863 398.078 49.3689C398.1 49.3515 398.113 49.3253 398.113 49.2992C398.113 49.2731 398.104 49.247 398.083 49.2296L397.957 49.0989C397.94 49.0815 397.914 49.0685 397.892 49.0685C397.87 49.0685 397.849 49.0772 397.831 49.0902C397.823 49.0946 397.636 49.2383 397.35 49.4385L397.064 49.2383L398.182 48.4633L398.269 48.6853C398.282 48.7202 398.312 48.7463 398.356 48.7463C398.356 48.7463 398.356 48.7463 398.36 48.7463C398.395 48.7463 398.429 48.7245 398.442 48.694L398.975 47.7101C398.993 47.6753 398.988 47.6361 398.971 47.6056C398.954 47.5795 398.923 47.5664 398.893 47.5664C398.889 47.5664 398.884 47.5664 398.88 47.5664L397.779 47.7318C397.74 47.7362 397.71 47.7623 397.701 47.8015C397.693 47.8363 397.701 47.8755 397.732 47.9016L397.909 48.0584L396.635 48.9379L395.365 48.0584L395.543 47.9016C395.569 47.8755 395.582 47.8363 395.569 47.8015C395.56 47.7623 395.53 47.7362 395.491 47.7318L394.39 47.5664C394.386 47.5664 394.381 47.5664 394.377 47.5664C394.342 47.5664 394.312 47.5795 394.299 47.6056C394.277 47.6361 394.277 47.6753 394.295 47.7101L394.828 48.694C394.845 48.7245 394.88 48.7463 394.914 48.7463C394.919 48.7463 394.919 48.7463 394.919 48.7463C394.953 48.7463 394.988 48.7202 395.001 48.6853L395.088 48.4633L396.206 49.2383L395.92 49.4385C395.634 49.2383 395.443 49.0946 395.439 49.0902C395.413 49.0685 395.391 49.0598 395.369 49.0598C395.343 49.0598 395.317 49.0685 395.3 49.0902L395.17 49.2209C395.153 49.2383 395.14 49.2644 395.14 49.2905C395.14 49.3166 395.153 49.3428 395.174 49.3602C395.196 49.3776 395.335 49.4995 395.565 49.6693L394.849 50.1613C394.823 50.1787 394.81 50.2092 394.81 50.2396C394.81 50.2745 394.828 50.3006 394.854 50.318L395.213 50.5618C395.213 50.5618 395.213 50.5618 395.209 50.5618C395.101 50.5923 394.997 50.6097 394.893 50.6097C394.416 50.6097 394.152 50.2484 394.074 49.9349C393.965 49.5213 394.108 48.5634 394.108 48.5504C394.113 48.5112 394.095 48.472 394.061 48.4546C393.866 48.3414 393.671 48.2804 393.489 48.2804C393.133 48.2804 392.925 48.4938 392.916 48.5025C392.899 48.5155 392.89 48.5373 392.89 48.5591C392.886 48.62 392.778 50.0045 393.415 50.7055C393.653 50.9624 393.961 51.0973 394.334 51.0973C394.399 51.0973 394.472 51.0973 394.542 51.0843C394.906 51.0408 395.261 50.945 395.604 50.8231L396.197 51.2236L394.884 52.1161C394.858 52.1379 394.841 52.164 394.841 52.1989C394.841 52.2293 394.854 52.2598 394.884 52.2772L396.202 53.1915L395.079 53.9752L394.992 53.7575C394.979 53.7227 394.945 53.7009 394.91 53.6966C394.91 53.6966 394.91 53.6966 394.906 53.6966C394.871 53.6966 394.836 53.7183 394.819 53.7488L394.286 54.7371C394.269 54.7676 394.273 54.8068 394.29 54.8373C394.308 54.8634 394.338 54.8765 394.368 54.8765C394.373 54.8765 394.377 54.8765 394.381 54.8765L395.486 54.7197C395.526 54.7154 395.556 54.6849 395.565 54.6501C395.578 54.6109 395.565 54.576 395.539 54.5456L395.356 54.3845L396.631 53.5007L397.905 54.3845L397.723 54.5456C397.693 54.5717 397.684 54.6109 397.693 54.6501C397.701 54.6849 397.732 54.711 397.771 54.7197L398.871 54.8852C398.876 54.8852 398.88 54.8852 398.884 54.8852C398.915 54.8852 398.945 54.8721 398.962 54.846C398.984 54.8155 398.984 54.7763 398.967 54.7458L398.434 53.7575C398.416 53.7271 398.386 53.7053 398.351 53.7053H398.347C398.308 53.7053 398.278 53.7314 398.26 53.7662L398.174 53.9839L397.051 53.2002L398.369 52.2859C398.395 52.2685 398.412 52.238 398.412 52.2076C398.412 52.1727 398.395 52.1466 398.369 52.1248L397.055 51.2323L397.649 50.8318C397.992 50.9537 398.347 51.0495 398.711 51.093C398.785 51.1017 398.854 51.1061 398.919 51.1061C399.292 51.1061 399.604 50.9754 399.838 50.7142C400.479 50.0133 400.371 48.6244 400.362 48.5678C400.367 48.546 400.354 48.5242 400.341 48.5112ZM396.626 49.53L396.908 49.7215C396.821 49.7781 396.726 49.8347 396.626 49.8957C396.531 49.8347 396.436 49.7781 396.345 49.7215L396.626 49.53ZM395.604 50.2396L395.994 49.9697C396.067 50.0176 396.15 50.0698 396.236 50.1221C396.085 50.2048 395.929 50.2832 395.777 50.3528L395.604 50.2396ZM397.632 52.2119L396.631 52.9085L395.634 52.2119L396.631 51.5327L397.632 52.2119ZM396.626 50.9406L396.141 50.6097C396.31 50.5314 396.47 50.4443 396.626 50.3616C396.782 50.4443 396.943 50.5314 397.116 50.6097L396.626 50.9406ZM397.489 50.3528C397.333 50.2832 397.177 50.2048 397.025 50.1221C397.107 50.0698 397.19 50.0176 397.268 49.9697L397.658 50.2396L397.489 50.3528Z" fill="#212121"/>
<path d="M413.303 45.8851C412.891 45.637 412.211 45.5499 411.521 45.6152C412.605 45.2408 413.342 44.4309 413.381 43.7082C412.817 43.5471 412.232 43.6342 411.725 43.7474C412.25 43.3512 413.112 42.6328 413.008 41.5705C412.501 41.4442 411.569 41.8012 411.179 41.9754C412.427 41.2701 412.874 39.6069 412.215 38.6621C411.825 38.8929 410.039 40.7215 409.753 40.9348C410.676 39.8769 411.105 39.1149 411.352 38.4009C411.647 37.6216 411.669 36.2675 410.711 35.8147C410.26 36.8553 408.678 39.5198 407.798 40.6257C407.703 40.5386 407.625 40.4211 407.499 40.4037C407.287 41.0785 406.667 41.9754 406.1 42.4064C406.069 42.3498 406.013 42.1931 405.918 42.032C405.315 42.9376 403.751 44.1784 403.248 44.9403C402.853 45.5063 402.853 46.0157 403.399 46.5469C403.62 46.7689 404.041 47.1608 403.677 47.7094C403.183 48.4365 402.186 48.5192 401.649 48.0925C401.649 47.9619 401.644 47.84 401.64 47.7268C402.277 47.4786 402.424 46.6079 401.956 46.0636C401.852 46.2639 401.683 46.4076 401.479 46.4816C401.423 46.2552 401.375 46.1464 401.371 46.1333L401.345 46.081H401.289C401.284 46.081 401.076 46.068 400.76 46.0332C401.115 45.9156 401.341 45.5891 401.293 45.145C400.747 45.6152 400.201 45.1667 400.075 45.0405C399.733 44.6356 399.638 44.1828 399.772 43.4905C399.885 42.8853 400.509 41.9232 400.92 41.614C400.981 41.6706 401.072 41.7882 401.271 41.7664C401.388 41.7316 401.579 41.6314 401.722 41.5748C402.134 41.4486 402.537 41.5444 402.797 41.7098C403.265 41.9972 403.226 42.315 403.209 42.5457C403.924 42.1408 403.677 41.4704 402.741 41.2178C403.382 41.2178 403.911 41.8056 404.041 41.8796C404.396 42.1408 404.903 42.0842 405.198 41.9406C405.766 41.6706 405.879 40.9958 405.727 40.8608C405.67 41.1046 405.488 41.3136 405.159 41.3528C404.674 41.4094 404.201 41.1961 403.829 41.0306C403.512 40.8957 403.005 40.7999 402.658 40.8216C403.3 40.4646 404.297 40.5038 404.652 41.0524C404.864 40.8782 404.999 40.7259 405.055 40.3688C405.237 39.4066 404.487 38.9147 403.694 38.9147C403.716 38.6839 403.551 38.5664 403.339 38.6447C403.339 38.5446 403.313 38.4706 403.261 38.4314C403.278 38.4314 403.304 38.4227 403.321 38.4227C404.128 38.3661 404.886 38.1179 405.293 37.6825C406.013 36.9119 404.864 35.9323 405.276 35.1704C405.67 35.3445 405.957 35.5622 406.503 35.6406C406.559 35.7581 406.611 35.9889 406.628 36.1108C406.802 36.9685 405.961 37.1122 406.178 38.0265C406.273 38.4401 406.581 38.5838 406.685 39.0758C406.685 39.0758 406.724 39.4197 406.425 39.7201C407.114 39.7375 407.478 39.1498 407.265 38.6055C407.17 38.3835 406.932 38.1702 406.932 37.9133C407.287 38.3835 407.603 38.3661 408.15 38.1919C408.401 38.1179 408.418 38.4619 408.262 38.7405C408.635 38.5185 408.735 38.1527 408.735 37.9917C408.735 37.6042 408.436 37.4213 408.15 37.4997C407.989 37.5171 407.66 37.7391 407.642 37.4213C407.573 36.8727 408.436 36.8901 408.262 36.0063C408.167 35.5622 407.677 35.3228 406.91 35.227C406.836 35.1486 406.641 34.9658 406.537 34.8134C406.117 34.1124 405.683 33.9295 405.423 34.0732C405.116 34.2256 404.955 34.3649 404.708 34.4955C404.505 34.6 404.297 34.661 404.162 34.8134C403.829 35.227 404.145 35.8713 404.314 36.2675C404.431 36.4983 404.708 37.0251 404.583 37.4213C404.448 37.8915 403.672 38.1919 403.204 38.2877C403.174 38.2877 403.157 38.2964 403.126 38.2964V38.1136C403.261 37.8697 403.378 37.5824 403.473 37.3255C403.79 36.4765 403.317 36.1326 402.619 35.9671C402.533 35.9105 402.437 35.8888 402.32 35.9279H402.299L402.281 36.0716L402.186 36.0411L402.208 35.867H402.169C402.247 35.8104 402.286 35.7146 402.286 35.6188C402.286 35.5143 402.251 35.436 402.212 35.3794H402.307L402.268 35.3402C402.251 35.301 402.212 35.2662 402.156 35.2052C402.138 35.1878 402.121 35.1486 402.121 35.1312C402.138 35.1486 402.156 35.1704 402.195 35.1878C402.234 35.227 402.29 35.2662 402.307 35.301L402.364 35.3402V34.5608L402.307 34.6087C402.29 34.6262 402.234 34.6653 402.195 34.7045C402.156 34.7437 402.138 34.7437 402.121 34.7611C402.121 34.7437 402.138 34.7219 402.156 34.6828C402.216 34.6479 402.255 34.587 402.268 34.5608L402.307 34.4999H401.523L401.562 34.5608C401.596 34.587 401.649 34.6479 401.688 34.6828C401.705 34.7219 401.722 34.7437 401.744 34.7611C401.722 34.7437 401.688 34.7437 401.666 34.7045C401.596 34.6653 401.562 34.6262 401.523 34.6087L401.484 34.5608V35.3489L401.523 35.3097C401.562 35.2749 401.596 35.2357 401.666 35.1965C401.688 35.1791 401.722 35.1573 401.744 35.1399C401.722 35.1573 401.705 35.1965 401.688 35.2139C401.649 35.2749 401.601 35.3097 401.562 35.3489L401.523 35.3881H401.649C401.579 35.4447 401.562 35.523 401.562 35.6275C401.562 35.7233 401.596 35.8191 401.666 35.8757H401.649L401.666 36.0499L401.562 36.0803L401.54 35.9367H401.523C401.41 35.8975 401.31 35.9192 401.237 35.9758C400.526 36.1413 400.058 36.4852 400.374 37.3342C400.47 37.5955 400.587 37.8828 400.73 38.1223V38.2485C400.019 38.0178 398.745 37.2384 398.402 36.7639C398.363 36.716 398.333 36.6768 398.316 36.6507H398.311L398.324 36.1413C398.571 35.7277 398.792 35.2139 398.966 34.7481C399.416 33.5246 398.753 33.0152 397.7 32.8019C397.596 32.7279 397.457 32.6887 397.288 32.7453L397.249 32.9369L397.028 32.9195L397.046 32.6669C397.007 32.6844 396.972 32.6844 396.933 32.6844C397.085 32.6103 397.189 32.4231 397.189 32.2316C397.189 32.0966 397.119 31.9311 397.007 31.8571H397.189C397.08 31.7613 396.911 31.5567 396.872 31.4261C397.007 31.4653 397.206 31.6438 397.301 31.7439V30.7426C397.206 30.8166 397.007 31.0125 396.872 31.0299C396.911 30.9167 397.08 30.7208 397.189 30.625H396.192C396.27 30.7208 396.461 30.9167 396.478 31.0299C396.361 31.0125 396.17 30.8166 396.066 30.7426V31.7439C396.175 31.6438 396.361 31.4609 396.478 31.4261C396.461 31.5611 396.266 31.7613 396.192 31.8571H396.365C396.253 31.9311 396.192 32.0966 396.192 32.2316C396.192 32.4231 396.287 32.606 396.439 32.6844C396.4 32.6844 396.361 32.6844 396.305 32.6669L396.326 32.9195L396.105 32.9369L396.084 32.7453C395.91 32.6887 395.78 32.7279 395.663 32.8019C394.623 33.0152 393.956 33.5246 394.411 34.7481C394.562 35.2183 394.783 35.7277 395.052 36.1413V36.6724C395.035 36.6899 395.013 36.729 394.978 36.7682C394.645 37.2384 393.357 38.0221 392.651 38.2529V38.1266C392.794 37.8828 392.911 37.5955 393.006 37.3386C393.323 36.4896 392.855 36.1456 392.144 35.9802C392.066 35.9236 391.971 35.9018 391.858 35.941H391.836L391.815 36.0847L391.719 36.0542L391.737 35.8801H391.719C391.776 35.8235 391.815 35.7277 391.815 35.6319C391.815 35.5274 391.797 35.449 391.737 35.3924H391.854L391.815 35.3532C391.776 35.3141 391.737 35.2792 391.702 35.2183C391.685 35.2009 391.654 35.1617 391.637 35.1443C391.659 35.1617 391.702 35.1834 391.724 35.2009C391.78 35.24 391.819 35.2792 391.858 35.3141L391.897 35.3532V34.5608L391.858 34.6087C391.819 34.6262 391.78 34.6653 391.724 34.7045C391.706 34.7437 391.659 34.7437 391.637 34.7611C391.659 34.7437 391.685 34.7219 391.702 34.6828C391.741 34.6479 391.776 34.587 391.815 34.5608L391.854 34.4999H391.069L391.108 34.5608C391.125 34.587 391.173 34.6479 391.212 34.6828C391.247 34.7219 391.268 34.7437 391.268 34.7611C391.251 34.7437 391.234 34.7437 391.195 34.7045C391.147 34.6653 391.086 34.6262 391.069 34.6087L391.013 34.5608V35.3489L391.073 35.3097C391.091 35.2749 391.147 35.2357 391.199 35.1965C391.238 35.1791 391.255 35.1573 391.273 35.1399C391.273 35.1573 391.255 35.1965 391.216 35.2139C391.177 35.2749 391.13 35.3097 391.112 35.3489L391.073 35.3881H391.177C391.13 35.4447 391.091 35.523 391.091 35.6275C391.091 35.7233 391.13 35.8191 391.216 35.8757H391.177L391.199 36.0499L391.091 36.0803L391.073 35.9367H391.052C390.935 35.8975 390.839 35.9192 390.766 35.9758C390.055 36.1413 389.587 36.4852 389.903 37.3342C389.999 37.5955 390.116 37.8828 390.259 38.1223V38.3051C390.228 38.3051 390.202 38.2964 390.181 38.2964C389.713 38.2006 388.928 37.9002 388.794 37.43C388.668 37.0382 388.95 36.507 389.062 36.2763C389.244 35.8801 389.552 35.2357 389.227 34.8221C389.084 34.6697 388.872 34.6087 388.668 34.5042C388.421 34.3693 388.265 34.2343 387.953 34.0819C387.702 33.9383 387.273 34.1211 386.839 34.8221C386.744 34.9745 386.544 35.1573 386.466 35.2357C385.712 35.3315 385.223 35.5709 385.118 36.015C384.941 36.8988 385.808 36.8814 385.751 37.43C385.73 37.7478 385.396 37.5258 385.244 37.5084C384.945 37.43 384.65 37.6129 384.65 38.0004C384.65 38.1615 384.759 38.5272 385.123 38.7492C384.971 38.4706 384.988 38.1223 385.244 38.2006C385.79 38.3748 386.098 38.3922 386.453 37.922C386.453 38.1789 386.224 38.3922 386.12 38.6143C385.907 39.1628 386.258 39.7506 386.96 39.7288C386.644 39.4284 386.709 39.0845 386.709 39.0845C386.809 38.5925 387.112 38.4488 387.216 38.0352C387.429 37.1209 386.583 36.9772 386.765 36.1195C386.783 35.9933 386.822 35.7669 386.878 35.6493C387.424 35.5753 387.723 35.3532 388.105 35.1791C388.499 35.9367 387.368 36.9206 388.087 37.6912C388.499 38.1223 389.266 38.3748 390.059 38.4314C390.077 38.4314 390.103 38.4401 390.124 38.4445C390.068 38.4793 390.042 38.5577 390.042 38.6578C389.834 38.5794 389.669 38.697 389.7 38.9277C388.876 38.9277 388.148 39.4197 388.33 40.3819C388.386 40.7389 388.521 40.8913 388.742 41.0654C389.088 40.5169 390.085 40.4777 390.735 40.8347C390.38 40.8129 389.873 40.9087 389.557 41.0437C389.192 41.2091 388.724 41.4225 388.235 41.3659C387.897 41.3267 387.728 41.1133 387.658 40.8739C387.507 41.0089 387.619 41.6837 388.196 41.9536C388.482 42.0973 388.993 42.1539 389.344 41.8927C389.479 41.8187 390.007 41.2309 390.649 41.2309C389.717 41.4834 389.457 42.1539 390.185 42.5588C390.155 42.3281 390.12 42.0102 390.588 41.7229C390.848 41.5574 391.26 41.4616 391.663 41.5879C391.806 41.6445 391.997 41.7446 392.114 41.7795C392.313 41.7969 392.408 41.6837 392.465 41.6271C392.876 41.9362 393.479 42.8984 393.613 43.5036C393.756 44.1958 393.652 44.6486 393.305 45.0535C393.193 45.1798 392.634 45.6282 392.092 45.158C392.04 45.5978 392.265 45.9287 392.621 46.0462C392.304 46.081 392.092 46.0941 392.083 46.0941H392.027L392.005 46.1464C392.001 46.1551 391.953 46.2683 391.897 46.4903C391.698 46.4163 391.533 46.2726 391.429 46.0767C390.961 46.6166 391.104 47.483 391.737 47.7355C391.732 47.853 391.728 47.9837 391.728 48.1143C391.186 48.5322 390.202 48.4452 389.717 47.7224C389.344 47.1739 389.773 46.782 389.986 46.56C390.532 46.0288 390.532 45.5194 390.137 44.9534C389.63 44.1915 388.07 42.9507 387.468 42.0451C387.368 42.2105 387.312 42.3629 387.29 42.4195C386.726 41.9885 386.094 41.0959 385.886 40.4167C385.769 40.4341 385.682 40.5517 385.587 40.6388C384.715 39.5329 383.125 36.8684 382.674 35.8278C381.725 36.2806 381.742 37.639 382.033 38.414C382.288 39.128 382.722 39.8856 383.632 40.9479C383.346 40.7346 381.565 38.906 381.17 38.6752C380.511 39.62 380.958 41.2831 382.202 41.9885C381.82 41.8143 380.88 41.4573 380.373 41.5836C380.277 42.6415 381.127 43.3643 381.656 43.7605C381.149 43.6473 380.563 43.5602 380 43.7213C380.039 44.444 380.784 45.2538 381.838 45.6282C381.166 45.5586 380.49 45.65 380.074 45.8982C380.152 46.647 380.997 47.2958 382.007 47.4481C381.326 47.5222 380.724 47.8226 380.407 48.2362C380.78 48.7282 381.326 49.1026 382.158 49.0852C381.968 49.1548 381.747 49.2855 381.556 49.4683C381.534 49.4509 381.495 49.4291 381.461 49.4291C381.422 49.4465 381.404 49.5031 381.422 49.5423C381.422 49.5423 381.422 49.5423 381.422 49.5728C381.344 49.6294 381.296 49.6947 381.287 49.7644C381.209 49.8732 381.131 50.0082 381.088 50.1214C381.11 50.1301 381.127 50.1519 381.144 50.1606C381.136 50.2259 381.149 50.2999 381.201 50.3739C381.166 50.4131 381.144 50.4697 381.127 50.5263L380.637 50.3347C380.611 50.7788 380.706 51.1489 380.932 51.3753C381.11 51.5756 381.305 51.5494 381.248 51.6147L381.777 51.9413C381.872 52.1459 382.063 52.1459 382.197 52.085C382.197 52.085 382.197 52.1024 382.197 52.1241C382.197 52.3375 382.34 52.5073 382.531 52.5769C382.496 52.7511 382.57 52.8643 382.813 52.9427L384.806 57.7928C384.728 58.0236 384.806 58.2238 384.98 58.3022C384.936 58.3457 384.902 58.4067 384.902 58.5199C384.98 58.4633 385.092 58.4415 385.153 58.607C385.188 58.7202 384.98 59.099 385.296 59.3471C385.257 59.5692 385.37 59.7999 385.6 59.8957C385.6 60.0089 385.704 60.3877 385.725 60.5183C385.582 60.7229 385.257 61.0277 385.296 61.3673C385.335 61.6111 385.431 61.6851 385.621 61.7417C385.543 62.1727 385.782 62.3687 386.15 62.3861C386.15 62.7039 386.445 62.8171 386.64 62.8345C386.822 62.9695 386.9 63.0261 387.108 63.1349C386.917 63.3657 387.051 63.6661 387.403 63.7619C387.442 63.8969 387.537 64.0101 387.736 64.0579C387.853 64.2495 388.061 64.2495 388.187 64.1929C388.265 64.1537 388.399 63.9317 388.282 63.7401C388.36 63.6443 388.321 63.4615 388.265 63.3439C388.378 63.1349 388.282 62.8737 388.122 62.7953C388.144 62.6778 388.083 62.4949 388.044 62.3817C388.321 62.2076 388.668 61.9855 388.789 61.9115C389.47 61.4195 390.237 60.9842 391.108 60.9276C391.329 60.9058 391.741 60.8884 391.971 60.9058C392.322 60.945 392.811 61.0495 393.097 60.8318C393.184 60.7752 393.24 60.6794 393.223 60.5793C393.184 60.3572 392.946 60.1656 392.868 59.9654C392.846 59.9044 392.811 59.8173 392.772 59.7346C393.024 59.7782 393.249 59.7433 393.392 59.6737C393.544 59.6171 393.921 59.3384 393.899 58.9248C393.6 59.0685 392.881 59.26 392.807 58.5286C392.729 57.8842 393.297 57.3357 394.177 57.5751C394.779 57.7275 395.659 59.0162 394.853 59.5779C394.458 59.8478 393.856 60.1047 393.934 60.81C394.19 60.4922 394.536 60.3398 394.983 60.379C394.324 60.871 393.817 60.9276 393.128 61.302C392.525 61.659 392.075 62.2468 391.602 62.2642C391.238 62.2816 391.039 61.8506 391.39 61.511C391.034 61.437 390.566 61.7156 390.432 62.0857C390.259 62.5951 390.393 62.9608 390.709 63.1654C390.28 63.3962 389.964 63.849 390.116 64.4933C390.259 65.0245 390.787 65.0245 390.588 65.695C390.883 65.6166 391.073 65.4163 391.16 65.1246C391.199 64.9244 391.234 64.711 391.334 64.6152C391.294 65.0201 391.524 65.6166 392.07 65.8866C392.443 66.0694 393.028 66.1434 393.479 65.6732C393.661 66.2044 394.281 66.6528 394.926 66.6354C395.221 66.6354 395.512 66.5091 395.733 66.3785C395.884 66.7704 396.279 67.1666 396.669 67.3581C397.072 67.1666 397.466 66.7704 397.627 66.3785C397.839 66.5091 398.134 66.6354 398.424 66.6354C399.044 66.6528 399.698 66.2044 399.872 65.6732C400.322 66.1434 400.907 66.0651 401.28 65.8866C401.826 65.6166 402.056 65.0201 402.021 64.6152C402.125 64.711 402.16 64.9244 402.203 65.1246C402.277 65.412 402.468 65.6166 402.767 65.695C402.567 65.0201 403.105 65.0201 403.235 64.4933C403.386 63.849 403.07 63.3962 402.65 63.1654C402.957 62.9608 403.1 62.5951 402.918 62.0857C402.784 61.7112 402.316 61.4326 401.961 61.511C402.316 61.8462 402.125 62.2816 401.748 62.2642C401.28 62.2468 400.829 61.6546 400.223 61.302C399.533 60.9276 399.026 60.871 398.368 60.379C398.818 60.3398 399.174 60.4922 399.421 60.81C399.499 60.1047 398.896 59.8478 398.502 59.5779C397.709 59.0162 398.58 57.7275 399.191 57.5751C400.062 57.3357 400.639 57.8842 400.552 58.5286C400.457 59.26 399.759 59.0685 399.442 58.9248C399.442 59.3384 399.815 59.6171 399.971 59.6737C400.153 59.7607 400.483 59.8043 400.782 59.678C400.773 59.752 400.76 59.826 400.76 59.8478C400.699 60.4748 400.366 60.5314 400.478 60.7882C400.643 60.9798 401.714 60.9406 402.004 61.0016C402.511 61.0712 402.944 61.2584 403.43 61.3586C403.976 61.4718 404.561 61.4718 405.051 61.6764C405.367 61.8114 405.722 62.0683 406.026 62.225C406.494 62.3034 406.42 62.4949 406.715 62.4949C406.984 62.4949 407.088 62.2642 407.43 62.1684C407.668 62.1118 407.937 62.2076 408.176 62.1292C408.349 62.09 408.427 61.9115 408.592 61.8114C408.782 61.6938 409.051 61.6938 409.233 61.5284C409.328 61.4457 409.346 61.2802 409.333 61.167L409.337 61.1931C409.701 60.9363 409.979 60.5575 410.135 60.1221C410.23 60.1047 410.308 60.0176 410.308 59.9218C410.308 59.9044 410.308 59.887 410.308 59.887C410.403 59.8086 410.46 59.6911 410.46 59.5779C410.46 59.4298 410.403 59.3166 410.308 59.2209C410.308 59.2209 410.308 59.1991 410.308 59.1817C410.308 59.1077 410.269 59.0467 410.234 58.9988C410.083 58.1629 409.45 57.488 408.635 57.2791C408.635 57.2573 408.635 57.2573 408.635 57.2399H408.618C408.618 57.2007 408.6 57.1789 408.57 57.1789C408.453 57.0788 408.319 56.8959 408.306 56.7784C408.44 56.8176 408.661 57.0309 408.774 57.1136V56.0077C408.661 56.0948 408.44 56.3038 408.306 56.343C408.323 56.208 408.531 55.9686 408.639 55.8728H407.521C407.625 55.9686 407.838 56.208 407.855 56.343C407.72 56.3038 407.499 56.0905 407.387 56.0077V57.1136C407.499 57.0265 407.72 56.8176 407.855 56.7784C407.838 56.9133 407.625 57.1528 407.521 57.2486L407.56 57.266C406.728 57.4576 406.056 58.1542 405.9 59.0075C405.844 59.0554 405.805 59.1164 405.805 59.1904C405.805 59.2078 405.805 59.2296 405.805 59.2296C405.709 59.3254 405.653 59.4386 405.653 59.5866C405.653 59.6998 405.709 59.8173 405.805 59.8957C405.805 59.8957 405.805 59.9131 405.805 59.9305C405.805 60.0568 405.883 60.1134 405.978 60.1308C406.017 60.2397 406.065 60.3441 406.113 60.4399C406.113 60.4312 406.113 60.4312 406.126 60.4182C406.056 60.736 405.675 60.9276 405.588 60.9276C404.908 61.0233 404.149 60.736 403.46 60.4748C403.157 60.3572 402.745 60.2266 402.541 59.9262C402.416 59.7085 402.364 59.5692 402.429 59.3776C402.502 59.4734 402.632 59.5822 402.801 59.6737C402.819 59.5779 402.819 59.4734 402.858 59.395C403.035 59.6562 403.308 59.7869 403.642 59.7694C403.443 59.5953 403.347 59.1425 403.443 58.7507C403.72 59.2209 404.773 59.321 404.968 58.472C404.574 58.6549 404.323 58.4546 404.249 58.2413C404.132 57.9017 404.518 57.0831 404.171 56.4518C403.894 55.9816 403.577 55.6943 402.84 55.5767C402.897 55.4896 402.914 55.4113 402.936 55.2763C402.26 55.5288 401.67 55.3329 401.393 54.7843C401.527 54.8409 401.727 54.8627 401.922 54.8627C401.319 54.3707 401.354 52.9731 401.787 52.2548C401.844 52.2156 401.861 52.1764 401.922 52.159C402.056 52.4289 402.45 52.4289 402.65 52.651C402.728 52.5726 402.767 52.5552 402.845 52.4855C402.845 52.4855 402.862 53.6306 402.94 54.1008C403.014 54.6319 403.525 54.571 403.785 54.8061C404.093 54.4665 404.648 54.4839 404.561 53.9005C404.483 53.3171 404.37 52.7859 404.349 52.3897C404.522 52.7467 404.856 54.0834 404.99 54.4665C405.207 55.0368 405.757 54.8627 406.061 55.0847C406.264 54.6885 406.771 54.5753 406.568 53.9745C406.511 53.8221 405.679 52.0588 405.553 51.7236C405.848 52.159 406.654 53.7089 406.906 54.14C407.183 54.5928 407.69 54.3707 408.054 54.4839C408.124 54.1574 408.613 53.7829 408.258 53.217C407.807 52.4637 406.754 51.1576 406.698 50.9747C406.91 51.175 408.544 53.2169 408.67 53.3301C409.051 53.6654 409.606 53.4042 409.935 53.4042C409.935 53.0297 410.23 52.6074 409.801 52.172C409.406 51.7976 408.505 51.1532 408.314 50.9312C408.917 51.3448 409.627 52.0066 410.048 52.1154C410.793 52.307 411.062 52.0109 411.344 51.8934C411.114 51.2098 411.417 50.892 409.84 50.2302C411.209 50.7222 411.812 50.4784 412.302 50.0953C412.111 49.6033 411.621 49.194 411.227 49.0591C412.063 49.0765 412.618 48.702 412.982 48.2101C412.674 47.7964 412.063 47.496 411.365 47.422C412.384 47.2827 413.207 46.6383 413.303 45.8851ZM381.595 50.9312C381.578 50.9312 381.578 50.9486 381.56 50.9704C381.443 50.953 381.443 50.818 381.465 50.7004C381.521 50.7004 381.56 50.683 381.599 50.6438L381.617 50.6656L381.56 50.7004C381.578 50.7745 381.578 50.8528 381.595 50.9312ZM381.968 51.7367L381.777 51.6235C381.851 51.5364 381.929 51.5364 382.002 51.5843C382.007 51.6409 382.007 51.6975 381.968 51.7367ZM382.531 50.535C382.505 50.535 382.483 50.535 382.457 50.535C382.453 50.5306 382.449 50.5219 382.444 50.5176C382.479 50.5089 382.518 50.5089 382.548 50.5002C382.544 50.5089 382.54 50.5219 382.531 50.535ZM393.396 64.5935C392.928 64.5935 392.59 64.2974 392.829 63.8794C392.954 64.0667 393.201 64.1537 393.414 64.1755C393.397 64.3758 393.396 64.4324 393.396 64.5935ZM400.543 63.8794C400.786 64.2931 400.448 64.5935 399.98 64.5935C399.98 64.4324 399.98 64.3758 399.941 64.1799C400.158 64.1581 400.413 64.0754 400.543 63.8794ZM393.375 38.4096C394.45 38.1789 395.542 37.5737 396.032 37.0643C396.439 37.0904 396.963 37.0948 397.362 37.0686C397.848 37.5824 398.922 38.1745 399.997 38.4096C399.373 38.4096 398.285 38.353 398.151 38.1963C398.19 38.5881 399.022 39.0366 399.568 39.1585C399.117 39.2151 398.697 39.1585 398.342 38.9974C398.537 39.276 398.753 39.4894 399.117 39.6113C398.736 40.0815 397.952 40.3906 397.171 40.3122C397.362 40.543 397.718 40.6867 398.03 40.6475C397.332 41.7664 396.812 42.9158 396.69 44.2481H396.686V44.2524C396.569 42.9202 396.053 41.7708 395.36 40.6475C395.676 40.6867 396.023 40.543 396.201 40.3122C395.416 40.3863 394.658 40.0815 394.268 39.6113C394.632 39.485 394.853 39.276 395.043 38.9974C394.697 39.1585 394.268 39.2151 393.817 39.1585C394.363 39.0366 395.204 38.5881 395.243 38.1963C395.091 38.353 394.003 38.4096 393.375 38.4096ZM383.55 50.2476C383.45 50.2868 383.333 50.3391 383.242 50.3783C383.242 50.3696 383.242 50.3608 383.242 50.3521C383.337 50.3173 383.454 50.2825 383.55 50.2476ZM390.445 55.2894C390.467 55.4243 390.484 55.5027 390.54 55.5898C389.804 55.703 389.487 55.9947 389.223 56.4649C388.846 57.1006 389.24 57.9191 389.132 58.2543C389.058 58.4677 388.811 58.6679 388.417 58.4851C388.607 59.3341 389.661 59.2383 389.938 58.7637C390.033 59.1556 389.938 59.6127 389.747 59.7825C390.072 59.7999 390.354 59.6693 390.523 59.4081C390.562 59.4864 390.562 59.5909 390.579 59.6867C390.761 59.5909 390.878 59.4864 390.952 59.3907C390.982 59.4864 391.017 59.7085 390.974 59.887C390.835 59.9828 390.675 60.0699 390.428 60.2005C390.033 60.392 389.318 60.6707 388.906 60.7316C388.568 60.7882 387.983 60.5967 387.832 60.1221C387.697 59.6693 387.325 59.5256 387.025 59.8043C386.952 59.7477 386.739 59.7085 386.653 59.8435C386.653 59.8435 386.557 59.6301 386.44 59.5256C386.518 59.2949 386.458 59.0162 386.25 58.9205C386.232 58.4677 385.955 58.4677 385.86 58.3109C385.803 58.2151 385.803 58.0976 385.938 58.0802C385.881 57.9931 385.764 57.9757 385.747 57.9757C385.786 57.7841 385.725 57.5446 385.47 57.4663L383.194 52.7598C383.337 52.6074 383.264 52.3854 383.099 52.307C383.099 52.307 383.099 52.2896 383.099 52.2722C383.112 52.233 383.116 52.2069 383.121 52.1764C383.181 52.1677 383.255 52.1503 383.32 52.1372C383.771 52.0327 384.468 51.3666 385.075 50.953C384.863 51.175 383.983 51.8194 383.589 52.1938C383.225 52.5595 383.376 52.9252 383.437 53.2518L383.524 53.4346C383.857 53.4564 384.356 53.6567 384.728 53.3476C384.845 53.2344 386.484 51.1924 386.7 50.9922C386.618 51.175 385.582 52.4855 385.114 53.2344C384.767 53.8004 385.275 54.1748 385.335 54.5013C385.708 54.3881 386.215 54.6102 386.484 54.1574C386.744 53.7263 387.537 52.1764 387.836 51.741C387.723 52.0806 386.878 53.8395 386.822 53.9919C386.622 54.5884 387.129 54.706 387.329 55.1021C387.637 54.8801 388.187 55.0543 388.399 54.4839C388.534 54.1008 388.867 52.7642 389.041 52.4071C389.019 52.8033 388.906 53.3345 388.828 53.9179C388.75 54.5057 389.297 54.4883 389.583 54.8235C389.86 54.5928 390.367 54.6494 390.445 54.1182C390.523 53.648 390.54 52.5029 390.54 52.5029C390.618 52.5726 390.657 52.59 390.744 52.6684C390.935 52.4463 391.329 52.4463 391.459 52.1764C391.52 52.1938 391.537 52.233 391.594 52.2722C392.023 52.9905 392.062 54.3881 391.459 54.8801C391.633 54.8801 391.854 54.8583 391.988 54.8017C391.719 55.346 391.125 55.5375 390.445 55.2894ZM394.688 61.881C394.333 62.373 394.055 62.7257 393.826 63.3352C393.414 63.296 393.492 62.7866 393.626 62.5254C393.904 62.016 395.035 61.3499 395.598 60.6881C395.351 61.1148 395 61.4979 394.688 61.881ZM395.915 62.7866C395.685 63.6879 395.525 65.0201 395.598 65.6123C394.801 65.1987 395.251 63.5921 395.559 62.8998C395.988 61.9376 396.287 60.7621 396.383 60.0133C396.634 60.5836 396.084 62.1771 395.915 62.7866ZM397.774 65.6123C397.852 65.0158 397.7 63.6879 397.457 62.7866C397.293 62.1771 396.742 60.5836 396.989 60.0133C397.085 60.7621 397.384 61.9376 397.813 62.8998C398.121 63.5921 398.567 65.1987 397.774 65.6123ZM399.746 62.5254C399.88 62.7866 399.958 63.296 399.546 63.3352C399.317 62.7257 399.039 62.373 398.693 61.881C398.372 61.5023 398.021 61.1148 397.77 60.6881C398.337 61.3499 399.468 62.016 399.746 62.5254ZM399.651 55.6377C398.615 57.6622 396.712 59.3123 396.69 59.2862C396.669 59.3123 394.766 57.6622 393.73 55.6377C392.694 53.6131 392.027 50.4349 391.992 48.9197C391.953 47.4003 392.252 46.7515 392.252 46.7515C392.252 46.7515 393.548 46.6819 394.588 46.3162C395.468 46.0114 396.426 45.2364 396.695 45.01C396.963 45.2364 397.921 46.0114 398.805 46.3162C399.841 46.6775 401.137 46.7515 401.137 46.7515C401.137 46.7515 401.432 47.4003 401.393 48.9197C401.349 50.4392 400.686 53.6175 399.651 55.6377Z" fill="#212121"/>
<path d="M448.302 37.6552L448.558 35.0212H448.463L447.462 37.3026L442.898 44.5909H442.196L437.398 37.2808L436.44 35.0473H436.323L436.696 37.6335V48.2611H434.494V31.8037H436.249L441.797 40.1979L442.664 41.9829H442.711L443.531 40.15L448.796 31.8037H450.647V48.2611H448.307V37.6552H448.302Z" fill="#212121"/>
<path d="M462.133 41.2069L462.462 38.76H462.207L461.058 41.0632L455.303 48.2557H453.643V35.917H455.797V43.2053L455.632 45.3691H455.888L456.962 43.2749L462.601 35.917H464.287V48.2601H462.133V41.2069Z" fill="#212121"/>
<path d="M475.594 42.8744H469.418V48.2601H467.264V35.917H469.418V40.95H475.594V35.917H477.748V48.2601H475.594V42.8744Z" fill="#212121"/>
<path d="M492.929 51.36H491.477L491.078 48.2557H480.711V35.917H482.865V46.4271H488.785V35.917H490.939V46.4271H492.929V51.36Z" fill="#212121"/>
<path d="M502.813 41.2069L503.142 38.76H502.886L501.738 41.0632L495.982 48.2557H494.322V35.917H496.476V43.2053L496.312 45.3691H496.567L497.642 43.2749L503.281 35.917H504.967V48.2601H502.813V41.2069Z" fill="#212121"/>
<path d="M514.186 48.3308C513.813 48.4571 513.458 48.5311 513.12 48.5528C512.786 48.5746 512.483 48.5877 512.218 48.5877C510.597 48.5877 509.345 48.0521 508.461 46.9768C507.581 45.9014 507.139 44.2774 507.139 42.1005C507.139 40.0455 507.624 38.465 508.591 37.3505C509.557 36.2359 510.961 35.683 512.803 35.683C513.02 35.683 513.245 35.6917 513.471 35.7047C513.696 35.7221 513.934 35.7613 514.186 35.8223V31.8037H516.34V35.8484C516.747 35.77 517.081 35.7221 517.345 35.7091C517.61 35.6917 517.844 35.6873 518.047 35.6873C519.811 35.6873 521.142 36.1749 522.039 37.1458C522.936 38.1167 523.383 39.6841 523.383 41.848C523.383 42.8493 523.261 43.768 523.019 44.5996C522.776 45.4312 522.425 46.1408 521.965 46.7286C521.506 47.3164 520.934 47.7735 520.258 48.1044C519.577 48.4353 518.81 48.5964 517.952 48.5964C517.779 48.5964 517.532 48.5746 517.202 48.5398C516.873 48.5006 516.587 48.4396 516.336 48.3613V52.9676H514.181V48.3308H514.186ZM512.829 46.8505C513.033 46.8505 513.241 46.8418 513.449 46.8287C513.661 46.8113 513.921 46.7721 514.233 46.7112V37.5856C513.952 37.5246 513.718 37.4811 513.531 37.455C513.345 37.4332 513.124 37.4201 512.877 37.4201C511.754 37.4201 510.883 37.7989 510.268 38.5608C509.652 39.3227 509.345 40.4983 509.345 42.1005C509.345 42.7753 509.41 43.4023 509.544 43.9813C509.678 44.5604 509.886 45.0611 510.177 45.4878C510.467 45.9101 510.827 46.2453 511.265 46.4848C511.698 46.7286 512.222 46.8505 512.829 46.8505ZM517.579 37.4201C517.328 37.4201 517.12 37.4288 516.947 37.4419C516.773 37.4593 516.557 37.5029 516.292 37.5812V46.7504C516.526 46.7983 516.756 46.8244 516.981 46.8331C517.207 46.8418 517.454 46.8461 517.718 46.8461C518.871 46.8461 519.738 46.4151 520.314 45.5531C520.891 44.691 521.181 43.4545 521.181 41.8393C521.181 41.1644 521.12 40.5549 520.995 40.0063C520.869 39.4577 520.665 38.9919 520.388 38.6087C520.106 38.2256 519.738 37.9295 519.274 37.7293C518.815 37.5246 518.251 37.4201 517.579 37.4201Z" fill="#212121"/>
<path d="M525.508 35.9171H526.96L527.381 37.4932H527.593C528.013 36.8837 528.559 36.4091 529.231 36.0695C529.903 35.7343 530.657 35.5645 531.502 35.5645C533.279 35.5645 534.605 36.0608 535.481 37.0578C536.356 38.0548 536.79 39.6396 536.79 41.8165C536.79 42.8527 536.647 43.7888 536.356 44.6247C536.066 45.465 535.654 46.1747 535.117 46.7625C534.579 47.3502 533.925 47.803 533.149 48.1122C532.378 48.4256 531.515 48.5824 530.562 48.5824C530.25 48.5824 529.964 48.5693 529.708 48.5475C529.452 48.5258 529.214 48.4866 528.993 48.43C528.776 48.3734 528.555 48.3124 528.338 48.2428C528.122 48.1731 527.892 48.0904 527.658 47.9946V52.9536H525.504V35.9171H525.508ZM530.982 37.3974C530.055 37.3974 529.322 37.6325 528.798 38.1027C528.269 38.5729 527.892 39.2957 527.658 40.2666V45.957C528.013 46.2095 528.403 46.4055 528.819 46.5448C529.24 46.6841 529.773 46.7581 530.423 46.7581C531.68 46.7581 532.664 46.3445 533.375 45.5129C534.085 44.6813 534.445 43.4449 534.445 41.7991C534.445 40.4669 534.181 39.4002 533.656 38.6034C533.127 37.798 532.239 37.3974 530.982 37.3974Z" fill="#212121"/>
<path d="M541.258 40.6409C541.756 40.5625 542.22 40.5103 542.649 40.4885C543.078 40.4667 543.464 40.4537 543.806 40.4537C544.712 40.4537 545.47 40.5495 546.086 40.7367C546.701 40.9239 547.195 41.1851 547.572 41.5116C547.945 41.8425 548.214 42.23 548.37 42.6741C548.526 43.1226 548.604 43.6015 548.604 44.1196C548.604 45.6086 548.153 46.6927 547.247 47.3762C546.341 48.0598 544.868 48.3994 542.822 48.3994C542.168 48.3994 541.535 48.3907 540.928 48.3776C540.321 48.3602 539.71 48.3297 539.104 48.2818V35.917H541.258V40.6409ZM541.258 46.4227C541.908 46.5185 542.571 46.5621 543.251 46.5621C544.365 46.5621 545.145 46.3661 545.592 45.9743C546.038 45.5825 546.263 45.0252 546.263 44.3068C546.263 43.6798 546.042 43.153 545.6 42.7307C545.158 42.3084 544.4 42.0951 543.316 42.0951C543.021 42.0951 542.696 42.1081 542.332 42.1299C541.968 42.1517 541.609 42.2039 541.253 42.2823V46.4227H541.258ZM550.875 35.917H553.029V48.2601H550.875V35.917Z" fill="#212121"/>
<path d="M434.494 50.7524C435.149 50.613 435.864 50.5129 436.635 50.4607C437.407 50.4041 438.169 50.3779 438.919 50.3779C439.717 50.3779 440.523 50.4476 441.342 50.5913C442.161 50.7306 442.907 50.9918 443.578 51.3662C444.25 51.7407 444.8 52.2631 445.23 52.9293C445.659 53.5954 445.875 54.4531 445.875 55.5024C445.875 56.4907 445.68 57.331 445.29 58.0276C444.9 58.7242 444.38 59.2945 443.734 59.7343C443.089 60.174 442.347 60.4962 441.511 60.6965C440.674 60.9011 439.816 61.0012 438.924 61.0012C438.828 61.0012 438.685 60.9969 438.49 60.9882C438.295 60.9795 438.091 60.9708 437.883 60.9664C437.671 60.9577 437.472 60.949 437.277 60.9316C437.082 60.9142 436.939 60.9011 436.843 60.8837V67.0443H434.503V50.7524H434.494ZM438.989 52.446C438.568 52.446 438.156 52.4547 437.762 52.4678C437.363 52.4852 437.056 52.52 436.839 52.5853V58.82C436.917 58.8504 437.047 58.8722 437.225 58.8766C437.402 58.8853 437.589 58.894 437.788 58.9114C437.983 58.9288 438.169 58.9332 438.351 58.9332C438.529 58.9332 438.668 58.9332 438.759 58.9332C439.322 58.9332 439.873 58.8896 440.419 58.8069C440.965 58.7242 441.459 58.5544 441.905 58.3106C442.352 58.0624 442.707 57.7141 442.98 57.2657C443.253 56.8172 443.392 56.2382 443.392 55.5285C443.392 54.9102 443.258 54.4009 442.993 54.0003C442.729 53.5998 442.386 53.2819 441.962 53.0512C441.541 52.8204 441.069 52.6593 440.544 52.5766C440.02 52.4895 439.504 52.446 438.989 52.446Z" fill="#212121"/>
<path d="M446.41 60.8827C446.41 59.8639 446.54 58.9496 446.809 58.1442C447.073 57.3387 447.463 56.6508 447.979 56.0892C448.495 55.5232 449.123 55.0922 449.864 54.7961C450.605 54.5 451.451 54.3477 452.404 54.3477C453.401 54.3477 454.276 54.5131 455.026 54.8396C455.776 55.1705 456.4 55.6277 456.899 56.2154C457.397 56.8032 457.77 57.4911 458.008 58.2835C458.251 59.0759 458.372 59.9423 458.372 60.8827C458.372 61.8841 458.233 62.7854 457.965 63.5865C457.692 64.3876 457.302 65.0668 456.794 65.6328C456.287 66.1987 455.663 66.6298 454.922 66.9258C454.181 67.2219 453.34 67.3743 452.408 67.3743C451.377 67.3743 450.488 67.2088 449.739 66.8823C448.989 66.5514 448.369 66.0986 447.879 65.5196C447.39 64.9405 447.021 64.2526 446.779 63.4645C446.532 62.6678 446.41 61.8101 446.41 60.8827ZM448.751 60.8827C448.751 61.4618 448.816 62.0321 448.946 62.5894C449.076 63.1467 449.288 63.6431 449.583 64.0828C449.873 64.5225 450.254 64.8752 450.714 65.1408C451.178 65.4064 451.745 65.5413 452.426 65.5413C454.827 65.5413 456.032 63.9914 456.032 60.8871C456.032 60.2776 455.967 59.6898 455.837 59.1238C455.707 58.5578 455.499 58.0615 455.213 57.6304C454.927 57.1994 454.554 56.8511 454.09 56.5855C453.626 56.3199 453.072 56.185 452.426 56.185C451.225 56.185 450.311 56.5725 449.687 57.3474C449.063 58.1224 448.751 59.3023 448.751 60.8827Z" fill="#212121"/>
<path d="M470.164 66.1982C469.618 66.5901 468.976 66.8861 468.244 67.0777C467.511 67.2736 466.74 67.3694 465.925 67.3694C464.893 67.3694 464.018 67.2127 463.29 66.8992C462.566 66.5857 461.977 66.146 461.522 65.5843C461.071 65.0183 460.741 64.3391 460.538 63.538C460.334 62.7369 460.234 61.8531 460.234 60.8822C460.234 58.7967 460.737 57.1858 461.743 56.0495C462.748 54.9131 464.196 54.3428 466.085 54.3428C466.913 54.3428 467.628 54.4168 468.239 54.5648C468.846 54.7128 469.392 54.9001 469.878 55.1178L469.318 56.881C468.898 56.6634 468.447 56.4892 467.958 56.3629C467.468 56.2367 466.939 56.1757 466.367 56.1757C463.84 56.1757 462.575 57.7431 462.575 60.8779C462.575 61.4743 462.644 62.049 462.783 62.6063C462.921 63.1636 463.147 63.6556 463.459 64.0866C463.771 64.5176 464.174 64.8659 464.681 65.1315C465.184 65.3971 465.799 65.5321 466.532 65.5321C467.182 65.5321 467.754 65.4407 468.239 65.2621C468.729 65.0836 469.136 64.8659 469.462 64.6178L470.164 66.1982Z" fill="#212121"/>
<path d="M481.07 66.1982C480.524 66.5901 479.882 66.8861 479.15 67.0777C478.417 67.2736 477.646 67.3694 476.831 67.3694C475.8 67.3694 474.924 67.2127 474.196 66.8992C473.472 66.5857 472.883 66.146 472.428 65.5843C471.977 65.0183 471.648 64.3391 471.444 63.538C471.24 62.7369 471.141 61.8531 471.141 60.8822C471.141 58.7967 471.643 57.1858 472.649 56.0495C473.654 54.9131 475.102 54.3428 476.992 54.3428C477.819 54.3428 478.534 54.4168 479.146 54.5648C479.752 54.7128 480.298 54.9001 480.784 55.1178L480.225 56.881C479.804 56.6634 479.354 56.4892 478.864 56.3629C478.374 56.2367 477.845 56.1757 477.273 56.1757C474.747 56.1757 473.481 57.7431 473.481 60.8779C473.481 61.4743 473.55 62.049 473.689 62.6063C473.828 63.1636 474.053 63.6556 474.365 64.0866C474.677 64.5176 475.08 64.8659 475.587 65.1315C476.09 65.3971 476.706 65.5321 477.438 65.5321C478.088 65.5321 478.66 65.4407 479.146 65.2621C479.635 65.0836 480.043 64.8659 480.368 64.6178L481.07 66.1982Z" fill="#212121"/>
<path d="M491.74 59.9911L492.07 57.5442H491.814L490.666 59.8474L484.91 67.0399H483.25V54.7012H485.404V61.9895L485.239 64.1533H485.495L486.57 62.0591L492.208 54.7012H493.894V67.0442H491.74V59.9911Z" fill="#212121"/>
<path d="M505.578 59.9911L505.908 57.5442H505.652L504.503 59.8474L498.748 67.0399H497.088V54.7012H499.242V61.9895L499.077 64.1533H499.333L500.408 62.0591L506.046 54.7012H507.732V67.0442H505.578V59.9911Z" fill="#212121"/>
<path d="M425 32H423V67H425V32Z" fill="#212121"/>
</svg>
